<svg id="Layer_1" data-name="Layer 1" xmlns="http://www.w3.org/2000/svg" viewBox="0 0 51.57 69.8"><defs><style>.cls-1{fill:#fff;}.cls-2{fill:#40b549;}.cls-3{fill:#ebe847;}</style></defs><path class="cls-1" d="M173.05,150.43a2.82,2.82,0,0,1,2.72,3.09h0l-1.09,0c-2.67.13-9.66.8-14.44,3.73a44.5,44.5,0,0,0-8.63,7.32c-.3.29-.61.59-.91.9l-.35.35a3.26,3.26,0,0,0-.34.4,4.73,4.73,0,0,0-.37-.4l-.36-.35c-.29-.31-.59-.61-.91-.9a43.8,43.8,0,0,0-8.63-7.32c-4.78-2.93-11.77-3.6-14.44-3.73l-1.07,0h0a2.82,2.82,0,0,1,2.72-3.09,29,29,0,0,1,14.56,3.74,24.79,24.79,0,0,1,6.93,5.39,17.66,17.66,0,0,1,1.55,2.29,16.65,16.65,0,0,1,1.57-2.29,24.79,24.79,0,0,1,6.93-5.39A29,29,0,0,1,173.05,150.43Z" transform="translate(-124.22 -115.1)"/><path class="cls-1" d="M174.65,159.47l-.22,2.19a28.91,28.91,0,0,1-5.09,13.65,30,30,0,0,1-4.92,5.45c-5,3.89-7.61,3.37-7.61,3.37l1.48-2.41a2.54,2.54,0,0,1,.44-.54l1-.91c.78-.8,5.46-5.25,6.7-7a25.94,25.94,0,0,0,3.63-7.64,1.25,1.25,0,0,0-1.52-1.52,25.6,25.6,0,0,0-11.08,6.5c-2,2-6.09,9-6.09,9a5.08,5.08,0,0,0-.91,3.88,2.94,2.94,0,0,0,.79,1.46h-3.07a2.94,2.94,0,0,0,.79-1.46,5.06,5.06,0,0,0-.77-3.66c-.06-.07-.1-.15-.15-.22s-4.05-6.92-6.09-9a25.6,25.6,0,0,0-11.08-6.5,1.23,1.23,0,0,0-1.5,1.52,25.4,25.4,0,0,0,3.61,7.64c1.24,1.77,5.92,6.22,6.7,7l.94.87a3,3,0,0,1,.51.62l1.45,2.37s-2.94-.28-8.94-5.69a26.8,26.8,0,0,1-8.72-17.17l-.18-1.8,2.18.23a29.05,29.05,0,0,1,21.77,13.68,1.19,1.19,0,0,0,2,0,29.29,29.29,0,0,1,4.2-5.32,29,29,0,0,1,17.57-8.36Z" transform="translate(-124.22 -115.1)"/><path class="cls-2" d="M148.62,148.67a14.14,14.14,0,0,1-16.24-15.47,14.14,14.14,0,0,1,16.24,15.47Z" transform="translate(-124.22 -115.1)"/><path class="cls-2" d="M153.46,148.67A14.14,14.14,0,0,0,169.7,133.2a14.14,14.14,0,0,0-16.24,15.47Z" transform="translate(-124.22 -115.1)"/><path class="cls-3" d="M151.19,137.53a14.18,14.18,0,0,0,.54-22.43,14.18,14.18,0,0,0-.54,22.43Z" transform="translate(-124.22 -115.1)"/></svg>